# xmcd CD database file
#
# Track frame offsets:
#	150
#	93834
#	146055
#	222854
#	282183
#
# Disc length: 4295 seconds
#
# Revision: 0
# Processed by: cddbd v1.5.2PL0 Copyright (c) Steve Scherf et al.
# Submitted via: CDex 1.51
#
DISCID=4510c505
DTITLE=Scott Sheerin - Birds of Pray
DYEAR=1900
DGENRE=New Age
TTITLE0=	 - Tatei
TTITLE1=Again
TTITLE2=Sagrada
TTITLE3=Now
TTITLE4=Scott Sheerin - Sky
EXTD=
EXTT0=
EXTT1=
EXTT2=
EXTT3=
EXTT4=
PLAYORDER=
